<?xml version="1.0" encoding="utf-8"?>
<svg viewBox="786.7097 142.8351 261.0201 291.4401" xmlns="http://www.w3.org/2000/svg">
  <defs>
    <style type="text/css">
	.st0{fill:#FFFFFF;}
	.st1{fill:#E2A33C;}
	.st2{fill:#58595B;}
</style>
  </defs>
  <g transform="matrix(1, 0, 0, 1, 622.2296845649134, -130.7149219917494)">
    <g>
      <g>
        <g>
          <circle class="st0" cx="292.9" cy="407.94" r="88.55"/>
        </g>
      </g>
    </g>
    <g id="g-21">
      <g id="g-22">
        <g id="g-23">
          <g>
            <path class="st1" d="M210.51,513.71c0-6.07-2.19-11.3-6.58-15.7c-4.39-4.4-9.75-6.6-16.08-6.6c-6.31,0-11.66,2.2-16.05,6.6 c-4.39,4.4-6.58,9.63-6.58,15.7c0,6.11,2.19,11.36,6.58,15.75c4.39,4.39,9.74,6.58,16.05,6.58c6.33,0,11.69-2.19,16.08-6.58 C208.32,525.07,210.51,519.82,210.51,513.71z M187.85,531.25c-4.64,0-8.65-1.69-12.04-5.08c-3.39-3.39-5.08-7.54-5.08-12.46 c0-4.88,1.69-9.02,5.08-12.42c3.39-3.4,7.4-5.1,12.04-5.1c4.66,0,8.68,1.7,12.07,5.1c3.39,3.4,5.08,7.54,5.08,12.42 c0,4.92-1.69,9.08-5.08,12.46C196.54,529.56,192.51,531.25,187.85,531.25z"/>
          </g>
        </g>
        <g id="g-24">
          <g>
            <polygon class="st1" points="263.26,526.8 238.45,492.02 233.03,492.02 233.03,535.55 238.51,535.55 238.51,501.64 &#10;&#9;&#9;&#9;&#9;&#9;&#9;262.68,535.55 268.73,535.55 268.73,492.02 263.26,492.02 &#9;&#9;&#9;&#9;&#9;"/>
          </g>
        </g>
        <g id="g-25">
          <g>
            <polygon class="st1" points="315.82,492.02 309.46,492.02 298.24,508.11 298.24,492.02 292.76,492.02 292.76,535.55 &#10;&#9;&#9;&#9;&#9;&#9;&#9;298.24,535.55 298.24,517.22 301.08,513.13 316.75,535.55 323.14,535.55 304.32,508.65 &#9;&#9;&#9;&#9;&#9;"/>
          </g>
        </g>
        <g id="g-26">
          <g>
            <path class="st1" d="M356.01,492.02l-15.97,43.53h5.72l6.69-18.09h11.83l6.56,18.09h5.69l-15.76-43.53H356.01z M354.16,512.74 l4.2-11.56l4.18,11.56H354.16z"/>
          </g>
        </g>
        <g id="g-27">
          <g>
            <path class="st1" d="M423.42,535.55l-9.77-15.1c1.49-0.36,3.21-1.52,5.14-3.48c2.92-2.92,4.39-6.37,4.39-10.35 c0-3.95-1.42-7.35-4.27-10.2c-2.44-2.46-5.48-3.93-9.11-4.42h-12.46v43.53h5.48V521.3h5.11l9.17,14.25H423.42z M402.82,516.52 v-19.72h5.38c2.54,0,4.76,0.94,6.66,2.81c1.9,1.88,2.84,4.22,2.84,7.02c0,2.82-0.95,5.18-2.84,7.06 c-1.9,1.89-4.11,2.83-6.66,2.83H402.82z"/>
          </g>
        </g>
        <g id="g-28">
          <g>
            <polygon class="st2" points="164.48,564.75 176.09,564.75 176.09,562.42 167.16,562.42 167.16,555.25 176.09,555.25 &#10;&#9;&#9;&#9;&#9;&#9;&#9;176.09,552.92 167.16,552.92 167.16,545.75 176.09,545.75 176.09,543.42 164.48,543.42 &#9;&#9;&#9;&#9;&#9;"/>
          </g>
        </g>
        <g id="g-29">
          <g>
            <polygon class="st2" points="204.49,560.46 192.33,543.42 189.68,543.42 189.68,564.75 192.36,564.75 192.36,548.13 &#10;&#9;&#9;&#9;&#9;&#9;&#9;204.2,564.75 207.17,564.75 207.17,543.42 204.49,543.42 &#9;&#9;&#9;&#9;&#9;"/>
          </g>
        </g>
        <g id="g-30">
          <g>
            <polygon class="st2" points="219.58,545.75 224.68,545.75 224.68,564.75 227.34,564.75 227.34,545.75 232.43,545.75 &#10;&#9;&#9;&#9;&#9;&#9;&#9;232.43,543.42 219.58,543.42 &#9;&#9;&#9;&#9;&#9;"/>
          </g>
        </g>
        <g id="g-31">
          <g>
            <polygon class="st2" points="244.88,564.75 256.49,564.75 256.49,562.42 247.56,562.42 247.56,555.25 256.49,555.25 &#10;&#9;&#9;&#9;&#9;&#9;&#9;256.49,552.92 247.56,552.92 247.56,545.75 256.49,545.75 256.49,543.42 244.88,543.42 &#9;&#9;&#9;&#9;&#9;"/>
          </g>
        </g>
        <g id="g-32">
          <g>
            <path class="st2" d="M280.63,555.65c1.43-1.43,2.15-3.12,2.15-5.07c0-1.94-0.7-3.6-2.09-4.99c-1.2-1.2-2.68-1.93-4.46-2.16 h-6.11v21.33h2.68v-6.98h2.5l4.49,6.98h3.1l-4.79-7.4C278.84,557.17,279.68,556.61,280.63,555.65z M272.81,555.43v-9.66h2.64 c1.25,0,2.33,0.46,3.26,1.38c0.93,0.92,1.39,2.06,1.39,3.44c0,1.38-0.46,2.54-1.39,3.46c-0.93,0.92-2.02,1.39-3.26,1.39H272.81 z"/>
          </g>
        </g>
        <g id="g-33">
          <g>
            <path class="st2" d="M301.98,543.42h-6.11v21.33h2.68v-6.98h2.64c2.06,0,3.8-0.71,5.22-2.13c1.41-1.42,2.12-3.11,2.12-5.05 c0-1.94-0.7-3.6-2.09-4.99C305.25,544.38,303.76,543.66,301.98,543.42z M304.45,554.04c-0.93,0.92-2.02,1.39-3.26,1.39h-2.64 v-9.66h2.64c1.25,0,2.33,0.46,3.26,1.38c0.93,0.92,1.39,2.06,1.39,3.44C305.85,551.96,305.38,553.12,304.45,554.04z"/>
          </g>
        </g>
        <g id="g-34">
          <g>
            <path class="st2" d="M332,555.65c1.43-1.43,2.15-3.12,2.15-5.07c0-1.94-0.7-3.6-2.09-4.99c-1.2-1.2-2.68-1.93-4.46-2.16h-6.11 v21.33h2.68v-6.98h2.5l4.49,6.98h3.1l-4.79-7.4C330.21,557.17,331.05,556.61,332,555.65z M324.17,555.43v-9.66h2.64 c1.25,0,2.33,0.46,3.26,1.38c0.93,0.92,1.39,2.06,1.39,3.44c0,1.38-0.46,2.54-1.39,3.46c-0.93,0.92-2.02,1.39-3.26,1.39H324.17 z"/>
          </g>
        </g>
        <g id="g-35">
          <g>
            <rect x="347.38" y="543.42" class="st2" width="2.68" height="21.33"/>
          </g>
        </g>
        <g id="g-36">
          <g>
            <path class="st2" d="M370.21,551.25c-0.89-0.42-1.59-0.87-2.1-1.36c-0.49-0.51-0.74-1.14-0.74-1.87c0-0.74,0.24-1.35,0.72-1.83 c0.48-0.48,1.03-0.72,1.64-0.72c0.62,0,1.18,0.25,1.66,0.74c0.24,0.24,0.5,0.76,0.8,1.56l2.4-0.93 c-0.3-0.93-0.71-1.65-1.23-2.16c-1.01-1-2.22-1.5-3.63-1.5c-1.43,0-2.63,0.49-3.59,1.46s-1.45,2.1-1.45,3.39 c0,1.31,0.46,2.44,1.39,3.36c0.93,0.93,2.16,1.65,3.69,2.15c1.09,0.45,2.04,1.08,2.85,1.88c0.8,0.8,1.2,1.8,1.2,3.01 s-0.41,2.22-1.22,3.03c-0.81,0.81-1.77,1.22-2.87,1.22c-1.09,0-2.03-0.39-2.82-1.18c-0.72-0.71-1.16-1.84-1.32-3.4l-2.58,0.93 c0.24,1.62,0.87,2.94,1.9,3.96c1.31,1.33,2.92,2,4.82,2c1.89,0,3.48-0.65,4.78-1.95c1.3-1.3,1.95-2.84,1.95-4.62 c0-1.78-0.66-3.32-1.97-4.62C373.34,552.65,371.91,551.8,370.21,551.25z"/>
          </g>
        </g>
        <g id="g-37">
          <g>
            <path class="st2" d="M419.25,551.25c-0.89-0.42-1.59-0.87-2.1-1.36c-0.49-0.51-0.74-1.14-0.74-1.87c0-0.74,0.24-1.35,0.72-1.83 c0.48-0.48,1.03-0.72,1.64-0.72c0.62,0,1.18,0.25,1.66,0.74c0.24,0.24,0.5,0.76,0.8,1.56l2.4-0.93 c-0.3-0.93-0.71-1.65-1.23-2.16c-1.01-1-2.22-1.5-3.63-1.5c-1.43,0-2.63,0.49-3.59,1.46s-1.45,2.1-1.45,3.39 c0,1.31,0.46,2.44,1.39,3.36c0.93,0.93,2.16,1.65,3.69,2.15c1.09,0.45,2.04,1.08,2.85,1.88c0.8,0.8,1.2,1.8,1.2,3.01 s-0.41,2.22-1.22,3.03s-1.77,1.22-2.87,1.22c-1.09,0-2.03-0.39-2.82-1.18c-0.72-0.71-1.16-1.84-1.32-3.4l-2.58,0.93 c0.24,1.62,0.87,2.94,1.9,3.96c1.31,1.33,2.92,2,4.82,2c1.89,0,3.48-0.65,4.78-1.95c1.3-1.3,1.95-2.84,1.95-4.62 c0-1.78-0.66-3.32-1.97-4.62C422.38,552.65,420.95,551.8,419.25,551.25z"/>
          </g>
        </g>
        <g id="g-38">
          <g>
            <polygon class="st2" points="400.85,545.75 400.85,543.42 389.25,543.42 389.25,564.75 400.85,564.75 400.85,562.42 &#10;&#9;&#9;&#9;&#9;&#9;&#9;391.93,562.42 391.93,555.25 400.85,555.25 400.85,552.92 391.93,552.92 391.93,545.75 &#9;&#9;&#9;&#9;&#9;"/>
          </g>
        </g>
        <g id="g-39">
          <g>
            <path class="st1" d="M355.53,293.75c-17.01-12.68-38.11-20.2-60.97-20.2c-22.85,0-43.95,7.51-60.97,20.2 c-22.43,16.72-37.75,42.44-40.64,71.81c-0.33,3.32-0.5,6.69-0.5,10.1s0.17,6.78,0.5,10.1c2.88,29.37,18.21,55.09,40.64,71.81 c17.01,12.68,38.11,20.2,60.97,20.2c22.85,0,43.95-7.51,60.97-20.2c22.43-16.72,37.75-42.44,40.64-71.81 c0.33-3.32,0.5-6.69,0.5-10.1s-0.17-6.78-0.5-10.1C393.28,336.19,377.95,310.47,355.53,293.75z M375.82,385.76 c-4.98,40.47-39.45,71.81-81.26,71.81c-41.81,0-76.28-31.34-81.26-71.81c-0.41-3.31-0.64-6.68-0.64-10.1 c0-3.42,0.23-6.79,0.64-10.1c4.98-40.47,39.45-71.81,81.26-71.81c41.81,0,76.29,31.34,81.26,71.81 c0.41,3.31,0.64,6.68,0.64,10.1C376.47,379.08,376.23,382.44,375.82,385.76z"/>
          </g>
        </g>
        <g id="g-40">
          <g>
            <path class="st2" d="M294.56,327.58c23.02,0,42.26,16.19,46.96,37.8h20.9c-2.75-18.28-12.7-34.21-26.88-44.78 c-11.44-8.53-25.62-13.58-40.98-13.58c-15.36,0-29.54,5.05-40.98,13.58c-15.08,11.24-25.38,28.53-27.32,48.27 c-0.22,2.23-0.34,4.5-0.34,6.79c0,2.29,0.12,4.55,0.34,6.79c1.94,19.74,12.24,37.03,27.32,48.27 c11.44,8.53,25.62,13.58,40.98,13.58c15.36,0,29.54-5.05,40.98-13.58c14.18-10.57,24.13-26.5,26.88-44.78h-20.9 c-4.71,21.61-23.94,37.8-46.96,37.8c-23.02,0-42.25-16.19-46.96-37.8h57.24v-20.55H247.6 C252.3,343.77,271.54,327.58,294.56,327.58z"/>
          </g>
        </g>
      </g>
    </g>
  </g>
</svg>